<?xml version="1.0" encoding="UTF-8"?>
<svg version="1.1" xmlns="http://www.w3.org/2000/svg" width="973" height="973">
<path d="M0 0 C3.94777944 0.01611339 7.89453571 0.00000469 11.84228516 -0.01904297 C36.0120214 -0.03968817 60.05081238 1.84420175 83.88525391 5.95361328 C84.96592133 6.13627747 84.96592133 6.13627747 86.06842041 6.32263184 C134.46931707 14.59003949 180.58406153 30.40244884 224.44775391 52.39111328 C225.92501953 53.1278125 225.92501953 53.1278125 227.43212891 53.87939453 C264.35304482 72.38868968 298.43157445 96.30454387 328.93603516 124.12548828 C330.30872341 125.36368298 331.68778184 126.595434 333.09545898 127.79370117 C338.98309664 132.82711077 344.45837649 138.24942452 349.9206543 143.73364258 C351.50735337 145.32570294 353.09933133 146.91234318 354.69189453 148.49853516 C360.15456705 153.95737205 365.44768891 159.50115724 370.44775391 165.39111328 C371.37281713 166.43977376 372.29982482 167.48672297 373.22900391 168.53173828 C381.88424328 178.3837437 389.7003873 188.81784475 397.44775391 199.39111328 C397.93018555 200.04644043 398.41261719 200.70176758 398.90966797 201.37695312 C415.32575714 223.73013416 428.95692662 247.66184186 441.44775391 272.39111328 C441.88474609 273.25430176 442.32173828 274.11749023 442.77197266 275.00683594 C463.53031102 316.35584916 477.19382288 361.38862936 484.88525391 406.95361328 C484.99904388 407.61384491 485.11283386 408.27407654 485.23007202 408.95431519 C489.38589334 433.4596223 490.95865418 458.11673752 490.83886719 482.94335938 C490.8227538 486.89113882 490.8388625 490.83789509 490.85791016 494.78564453 C490.87855536 518.95538078 488.99466544 542.99417176 484.88525391 566.82861328 C484.76347778 567.54905823 484.64170166 568.26950317 484.51623535 569.01177979 C476.2488277 617.41267644 460.43641835 663.52742091 438.44775391 707.39111328 C437.95662109 708.37595703 437.46548828 709.36080078 436.95947266 710.37548828 C418.45017751 747.2964042 394.53432332 781.37493383 366.71337891 811.87939453 C365.47518421 813.25208279 364.24343319 814.63114122 363.04516602 816.03881836 C358.01175642 821.92645601 352.58944266 827.40173587 347.10522461 832.86401367 C345.51316424 834.45071274 343.926524 836.0426907 342.34033203 837.63525391 C336.88149514 843.09792642 331.33770995 848.39104828 325.44775391 853.39111328 C324.39909342 854.3161765 323.35214422 855.24318419 322.30712891 856.17236328 C312.45512348 864.82760266 302.02102243 872.64374667 291.44775391 880.39111328 C290.79242676 880.87354492 290.13709961 881.35597656 289.46191406 881.85302734 C267.10873303 898.26911652 243.17702533 911.90028599 218.44775391 924.39111328 C217.15297119 925.04660156 217.15297119 925.04660156 215.83203125 925.71533203 C174.48301802 946.47367039 129.45023783 960.13718225 83.88525391 967.82861328 C83.22502228 967.94240326 82.56479065 968.05619324 81.884552 968.1734314 C57.37924489 972.32925271 32.72212967 973.90201355 7.89550781 973.78222656 C3.94772837 973.76611318 0.0009721 973.78222187 -3.94677734 973.80126953 C-28.11651359 973.82191473 -52.15530457 971.93802481 -75.98974609 967.82861328 C-77.07041351 967.6459491 -77.07041351 967.6459491 -78.1729126 967.45959473 C-126.57380925 959.19218707 -172.68855372 943.37977772 -216.55224609 921.39111328 C-217.53708984 920.89998047 -218.52193359 920.40884766 -219.53662109 919.90283203 C-256.45753701 901.39353688 -290.53606664 877.47768269 -321.04052734 849.65673828 C-322.4132156 848.41854359 -323.79227403 847.18679257 -325.19995117 845.98852539 C-331.08758882 840.95511579 -336.56286868 835.53280204 -342.02514648 830.04858398 C-343.61184556 828.45652362 -345.20382351 826.86988338 -346.79638672 825.28369141 C-352.25905923 819.82485451 -357.5521811 814.28106932 -362.55224609 808.39111328 C-363.47730932 807.3424528 -364.40431701 806.29550359 -365.33349609 805.25048828 C-373.98873547 795.39848286 -381.80487948 784.96438181 -389.55224609 774.39111328 C-390.03467773 773.73578613 -390.51710938 773.08045898 -391.01416016 772.40527344 C-407.43024933 750.05209241 -421.0614188 726.12038471 -433.55224609 701.39111328 C-434.20773437 700.09633057 -434.20773437 700.09633057 -434.87646484 698.77539062 C-455.63480321 657.4263774 -469.29831507 612.39359721 -476.98974609 566.82861328 C-477.10353607 566.16838165 -477.21732605 565.50815002 -477.33456421 564.82791138 C-481.49038552 540.32260426 -483.06314637 515.66548905 -482.94335938 490.83886719 C-482.92724599 486.89108775 -482.94335468 482.94433147 -482.96240234 478.99658203 C-482.98304754 454.82684578 -481.09915763 430.78805481 -476.98974609 406.95361328 C-476.86796997 406.23316833 -476.74619385 405.51272339 -476.62072754 404.77044678 C-468.35331988 356.36955012 -452.54091054 310.25480566 -430.55224609 266.39111328 C-430.06111328 265.40626953 -429.56998047 264.42142578 -429.06396484 263.40673828 C-410.5546697 226.48582237 -386.6388155 192.40729273 -358.81787109 161.90283203 C-357.5796764 160.53014377 -356.34792538 159.15108534 -355.1496582 157.7434082 C-350.1162486 151.85577055 -344.69393485 146.3804907 -339.2097168 140.91821289 C-337.61765643 139.33151382 -336.03101619 137.73953586 -334.44482422 136.14697266 C-328.98598733 130.68430014 -323.44220214 125.39117828 -317.55224609 120.39111328 C-316.50358561 119.46605006 -315.4566364 118.53904237 -314.41162109 117.60986328 C-304.55961567 108.9546239 -294.12551462 101.13847989 -283.55224609 93.39111328 C-282.56925537 92.66746582 -282.56925537 92.66746582 -281.56640625 91.92919922 C-259.21322522 75.51311004 -235.28151752 61.88194057 -210.55224609 49.39111328 C-209.68905762 48.95412109 -208.82586914 48.51712891 -207.93652344 48.06689453 C-166.58751021 27.30855617 -121.55473002 13.64504431 -75.98974609 5.95361328 C-75.32951447 5.8398233 -74.66928284 5.72603333 -73.98904419 5.60879517 C-49.48373707 1.45297385 -24.82662186 -0.11978699 0 0 Z " fill="#F6F5FC" transform="translate(482.55224609375,-0.39111328125)"/>
<path d="M0 0 C3.94777944 0.01611339 7.89453571 0.00000469 11.84228516 -0.01904297 C36.0120214 -0.03968817 60.05081238 1.84420175 83.88525391 5.95361328 C84.96592133 6.13627747 84.96592133 6.13627747 86.06842041 6.32263184 C134.46931707 14.59003949 180.58406153 30.40244884 224.44775391 52.39111328 C225.92501953 53.1278125 225.92501953 53.1278125 227.43212891 53.87939453 C264.35304482 72.38868968 298.43157445 96.30454387 328.93603516 124.12548828 C330.30872341 125.36368298 331.68778184 126.595434 333.09545898 127.79370117 C338.98309664 132.82711077 344.45837649 138.24942452 349.9206543 143.73364258 C351.50735337 145.32570294 353.09933133 146.91234318 354.69189453 148.49853516 C360.15456705 153.95737205 365.44768891 159.50115724 370.44775391 165.39111328 C371.37281713 166.43977376 372.29982482 167.48672297 373.22900391 168.53173828 C381.88424328 178.3837437 389.7003873 188.81784475 397.44775391 199.39111328 C397.93018555 200.04644043 398.41261719 200.70176758 398.90966797 201.37695312 C415.32575714 223.73013416 428.95692662 247.66184186 441.44775391 272.39111328 C441.88474609 273.25430176 442.32173828 274.11749023 442.77197266 275.00683594 C463.53031102 316.35584916 477.19382288 361.38862936 484.88525391 406.95361328 C484.99904388 407.61384491 485.11283386 408.27407654 485.23007202 408.95431519 C489.38589334 433.4596223 490.95865418 458.11673752 490.83886719 482.94335938 C490.8227538 486.89113882 490.8388625 490.83789509 490.85791016 494.78564453 C490.87855536 518.95538078 488.99466544 542.99417176 484.88525391 566.82861328 C484.76347778 567.54905823 484.64170166 568.26950317 484.51623535 569.01177979 C476.2488277 617.41267644 460.43641835 663.52742091 438.44775391 707.39111328 C437.95662109 708.37595703 437.46548828 709.36080078 436.95947266 710.37548828 C418.45017751 747.2964042 394.53432332 781.37493383 366.71337891 811.87939453 C365.47518421 813.25208279 364.24343319 814.63114122 363.04516602 816.03881836 C358.01175642 821.92645601 352.58944266 827.40173587 347.10522461 832.86401367 C345.51316424 834.45071274 343.926524 836.0426907 342.34033203 837.63525391 C336.88149514 843.09792642 331.33770995 848.39104828 325.44775391 853.39111328 C324.39909342 854.3161765 323.35214422 855.24318419 322.30712891 856.17236328 C312.45512348 864.82760266 302.02102243 872.64374667 291.44775391 880.39111328 C290.79242676 880.87354492 290.13709961 881.35597656 289.46191406 881.85302734 C267.10873303 898.26911652 243.17702533 911.90028599 218.44775391 924.39111328 C217.15297119 925.04660156 217.15297119 925.04660156 215.83203125 925.71533203 C174.48301802 946.47367039 129.45023783 960.13718225 83.88525391 967.82861328 C83.22502228 967.94240326 82.56479065 968.05619324 81.884552 968.1734314 C57.37924489 972.32925271 32.72212967 973.90201355 7.89550781 973.78222656 C3.94772837 973.76611318 0.0009721 973.78222187 -3.94677734 973.80126953 C-28.11651359 973.82191473 -52.15530457 971.93802481 -75.98974609 967.82861328 C-77.07041351 967.6459491 -77.07041351 967.6459491 -78.1729126 967.45959473 C-126.57380925 959.19218707 -172.68855372 943.37977772 -216.55224609 921.39111328 C-217.53708984 920.89998047 -218.52193359 920.40884766 -219.53662109 919.90283203 C-256.45753701 901.39353688 -290.53606664 877.47768269 -321.04052734 849.65673828 C-322.4132156 848.41854359 -323.79227403 847.18679257 -325.19995117 845.98852539 C-331.08758882 840.95511579 -336.56286868 835.53280204 -342.02514648 830.04858398 C-343.61184556 828.45652362 -345.20382351 826.86988338 -346.79638672 825.28369141 C-352.25905923 819.82485451 -357.5521811 814.28106932 -362.55224609 808.39111328 C-363.47730932 807.3424528 -364.40431701 806.29550359 -365.33349609 805.25048828 C-373.98873547 795.39848286 -381.80487948 784.96438181 -389.55224609 774.39111328 C-390.03467773 773.73578613 -390.51710938 773.08045898 -391.01416016 772.40527344 C-407.43024933 750.05209241 -421.0614188 726.12038471 -433.55224609 701.39111328 C-434.20773437 700.09633057 -434.20773437 700.09633057 -434.87646484 698.77539062 C-455.63480321 657.4263774 -469.29831507 612.39359721 -476.98974609 566.82861328 C-477.10353607 566.16838165 -477.21732605 565.50815002 -477.33456421 564.82791138 C-481.49038552 540.32260426 -483.06314637 515.66548905 -482.94335938 490.83886719 C-482.92724599 486.89108775 -482.94335468 482.94433147 -482.96240234 478.99658203 C-482.98304754 454.82684578 -481.09915763 430.78805481 -476.98974609 406.95361328 C-476.86796997 406.23316833 -476.74619385 405.51272339 -476.62072754 404.77044678 C-468.35331988 356.36955012 -452.54091054 310.25480566 -430.55224609 266.39111328 C-430.06111328 265.40626953 -429.56998047 264.42142578 -429.06396484 263.40673828 C-410.5546697 226.48582237 -386.6388155 192.40729273 -358.81787109 161.90283203 C-357.5796764 160.53014377 -356.34792538 159.15108534 -355.1496582 157.7434082 C-350.1162486 151.85577055 -344.69393485 146.3804907 -339.2097168 140.91821289 C-337.61765643 139.33151382 -336.03101619 137.73953586 -334.44482422 136.14697266 C-328.98598733 130.68430014 -323.44220214 125.39117828 -317.55224609 120.39111328 C-316.50358561 119.46605006 -315.4566364 118.53904237 -314.41162109 117.60986328 C-304.55961567 108.9546239 -294.12551462 101.13847989 -283.55224609 93.39111328 C-282.56925537 92.66746582 -282.56925537 92.66746582 -281.56640625 91.92919922 C-259.21322522 75.51311004 -235.28151752 61.88194057 -210.55224609 49.39111328 C-209.68905762 48.95412109 -208.82586914 48.51712891 -207.93652344 48.06689453 C-166.58751021 27.30855617 -121.55473002 13.64504431 -75.98974609 5.95361328 C-75.32951447 5.8398233 -74.66928284 5.72603333 -73.98904419 5.60879517 C-49.48373707 1.45297385 -24.82662186 -0.11978699 0 0 Z M-329.55224609 256.39111328 C-330.15552734 256.92994141 -330.75880859 257.46876953 -331.38037109 258.02392578 C-349.72120699 275.07918907 -360.90168982 302.31117875 -362.83171344 326.96030593 C-362.93405536 330.58873098 -362.95259791 334.20658767 -362.93319702 337.83639526 C-362.93666469 339.22316196 -362.9414366 340.60992589 -362.94737875 341.99668419 C-362.95976677 345.76097937 -362.95377486 349.52504294 -362.9444201 353.28933835 C-362.9375791 357.36716262 -362.94813572 361.44494949 -362.95635986 365.52276611 C-362.96964668 373.49345524 -362.96684189 381.46405926 -362.95812194 389.43475161 C-362.95132486 395.91833192 -362.9504374 402.4018885 -362.95369339 408.88547134 C-362.95415309 409.81105208 -362.95461279 410.73663282 -362.95508642 411.69026146 C-362.95604567 413.57105303 -362.95701832 415.45184458 -362.95800419 417.33263613 C-362.96654354 434.93821789 -362.95674734 452.54375265 -362.94060309 470.1493267 C-362.9272057 485.22555122 -362.92952607 500.30170642 -362.94335938 515.37792969 C-362.95944865 532.92082837 -362.96571503 550.46368593 -362.95652258 568.00659096 C-362.95556703 569.88076853 -362.95462391 571.75494611 -362.95369339 573.62912369 C-362.95323056 574.55104782 -362.95276774 575.47297194 -362.95229089 576.42283317 C-362.94971069 582.89068262 -362.95405105 589.35850579 -362.96113205 595.82635117 C-362.96958475 603.7200465 -362.96718842 611.61365245 -362.95128982 619.50733767 C-362.94345679 623.52772694 -362.94022952 627.54796771 -362.95023727 631.56835556 C-363.09733102 654.14884838 -363.09733102 654.14884838 -359.55224609 676.39111328 C-359.33972891 677.3190312 -359.12721172 678.24694912 -358.90825462 679.20298576 C-353.03947979 703.50513636 -334.00863757 729.21791625 -313.19287109 742.78173828 C-312.32146484 743.31283203 -311.45005859 743.84392578 -310.55224609 744.39111328 C-309.49521484 745.04595703 -308.43818359 745.70080078 -307.34912109 746.37548828 C-288.14713006 757.97202765 -268.55137929 762.55536743 -246.16064453 762.51708984 C-244.13946375 762.51995756 -242.11828297 762.52283317 -240.09710264 762.52600527 C-237.94012716 762.52867258 -235.78315958 762.52912994 -233.62618256 762.52921295 C-229.11039142 762.53036194 -224.59468042 762.54326306 -220.07891846 762.55877686 C-219.31374051 762.56134971 -218.54856256 762.56392256 -217.7601974 762.56657338 C-216.19635003 762.57183916 -214.63250273 762.57712464 -213.06865549 762.58242941 C-202.56952026 762.61741042 -192.07048759 762.64409368 -181.57128906 762.64160156 C-174.46969693 762.64000662 -167.36838182 762.65619143 -160.26687837 762.69230819 C-156.51894016 762.71065661 -152.77146389 762.72020904 -149.02349091 762.70783234 C-145.49368404 762.69628711 -141.96470143 762.70834774 -138.43500328 762.73746681 C-136.54465794 762.74713299 -134.65423533 762.73245635 -132.76393127 762.71665955 C-121.5676729 762.85054146 -111.41357515 765.80430264 -103.11474609 773.51611328 C-102.03364015 774.49124468 -100.9502267 775.46382272 -99.86474609 776.43408203 C-99.32205078 776.92569824 -98.77935547 777.41731445 -98.22021484 777.92382812 C-95.45425112 780.35700172 -92.53388903 782.58374324 -89.61474609 784.82861328 C-84.19682582 789.02928494 -78.97830291 793.41631887 -73.80249023 797.91040039 C-69.25217985 801.84122369 -64.56673807 805.56259658 -59.80883789 809.23779297 C-55.52938737 812.56459122 -51.4389057 816.0674359 -47.36474609 819.64111328 C-38.93440975 826.98916083 -30.75109668 833.97178627 -19.09179688 833.71630859 C-11.41489715 832.73326395 -4.86150148 826.48981816 0.82275391 821.64111328 C2.31875693 820.38709879 3.81485054 819.13319235 5.31103516 817.87939453 C6.02469238 817.27691895 6.73834961 816.67444336 7.47363281 816.05371094 C9.96626185 813.95442776 12.4846549 811.88806542 15.01025391 809.82861328 C15.86361328 809.13123047 16.71697266 808.43384766 17.59619141 807.71533203 C22.48069061 803.73413063 27.37159687 799.76083582 32.26416016 795.78955078 C35.02486644 793.54828725 37.78253391 791.30337124 40.53759766 789.05517578 C43.855328 786.34841676 47.18127273 783.65203088 50.51171875 780.9609375 C52.43050229 779.40510166 54.33946232 777.8377448 56.24853516 776.27001953 C65.19093619 768.99661381 73.31087892 763.2829482 85.17401123 763.25308228 C86.34278305 763.24762894 87.51155487 763.2421756 88.71574402 763.23655701 C90.63414848 763.23499352 90.63414848 763.23499352 92.59130859 763.23339844 C93.95508487 763.22872764 95.31885959 763.22358364 96.68263245 763.21800232 C99.61983849 763.20673093 102.55703445 763.19829165 105.49425507 763.19188309 C110.15329215 763.18117025 114.81225743 763.16091208 119.47125244 763.13876343 C132.7203844 763.07696441 145.96951341 763.02300107 159.21875 762.98974609 C166.53635998 762.9712989 173.8538506 762.94223101 181.17137265 762.90174139 C185.03618138 762.88082528 188.90084065 762.86523641 192.76570892 762.86293411 C214.79771426 763.03326024 214.79771426 763.03326024 236.44775391 759.39111328 C237.24727478 759.19927963 238.04679565 759.00744598 238.87054443 758.80979919 C254.35860254 754.90160506 268.19382195 747.57938242 280.44775391 737.39111328 C281.73939453 736.32763672 281.73939453 736.32763672 283.05712891 735.24267578 C301.36798352 719.49079154 312.14477032 699.37013502 318.44775391 676.39111328 C318.84828728 674.98971855 318.84828728 674.98971855 319.25691223 673.56001282 C321.71264226 664.14598269 321.92262318 655.15112304 321.95947266 645.49658203 C321.97635862 643.8112104 321.99451398 642.12585105 322.01387024 640.44050598 C322.06095175 636.04963018 322.09102971 631.65880421 322.11730957 627.26776123 C322.14732879 622.76906493 322.19378449 618.27053979 322.23876953 613.77197266 C322.32432517 604.97843782 322.39188008 596.18488663 322.44775391 587.39111328 C323.1237262 587.94255005 323.1237262 587.94255005 323.81335449 588.50512695 C325.88865261 590.19721336 327.9650704 591.88792039 330.04150391 593.57861328 C330.75016602 594.15675781 331.45882812 594.73490234 332.18896484 595.33056641 C336.39324789 598.75198296 340.63490677 602.10757066 344.94775391 605.39111328 C349.8004677 609.08898889 354.54377005 612.89641127 359.26025391 616.76611328 C365.19549535 621.63050502 371.24969665 626.28867572 377.4206543 630.84912109 C383.16972092 635.12175993 388.72068089 639.61631493 394.22119141 644.20361328 C394.84767578 644.72181641 395.47416016 645.24001953 396.11962891 645.77392578 C396.6671582 646.2317041 397.2146875 646.68948242 397.77880859 647.16113281 C403.3191738 651.24427499 408.77743894 650.95518018 415.44775391 650.39111328 C421.29771267 648.47658132 424.47030203 644.71801923 427.57212502 639.49944806 C428.59062792 637.04710196 428.70162512 635.24694217 428.70781612 632.59525681 C428.71488172 631.62732563 428.72194731 630.65939445 428.72922701 629.66213202 C428.72681192 628.60144767 428.72439684 627.54076332 428.72190857 626.44793701 C428.72714525 625.31901983 428.73238193 624.19010266 428.73777729 623.02697587 C428.75282375 619.23002527 428.75348347 615.43320888 428.75415039 611.63623047 C428.76068643 608.9195847 428.77014661 606.20295064 428.77937317 603.48631287 C428.80222506 596.09575301 428.81014405 588.70522186 428.81519961 581.31463146 C428.81845657 576.69931549 428.82497906 572.08400785 428.832201 567.46869659 C428.85176757 554.68851363 428.86817132 541.90833841 428.87107754 529.1281395 C428.87135889 527.90132649 428.87135889 527.90132649 428.87164593 526.64972939 C428.87201218 524.99171432 428.87237588 523.33369925 428.87273704 521.67568418 C428.87291985 520.85264981 428.87310266 520.02961544 428.87329102 519.18164062 C428.87347156 518.35760082 428.87365211 517.53356102 428.87383813 516.68455032 C428.87737942 503.33352632 428.90439868 489.98266365 428.9417889 476.6316956 C428.97987569 462.92221124 428.99923504 449.21280692 428.99953705 435.50326848 C429.00012156 427.80675277 429.00860896 420.11042948 429.03753471 412.41396332 C429.06205369 405.85991229 429.0693282 399.30612385 429.05428719 392.75203934 C429.04711981 389.40902096 429.05068994 386.06694284 429.07069778 382.72391319 C429.09108572 379.09622986 429.08064694 375.46988981 429.06248474 371.84222412 C429.07568471 370.79046265 429.08888468 369.73870119 429.10248464 368.65506816 C429.01599466 361.09217132 427.15684686 356.16440405 421.83101457 350.74639106 C418.45082535 347.70905445 415.44576951 347.03899325 410.94775391 346.89111328 C401.24089448 347.43184866 396.21510188 351.98842072 389.01171875 358.08789062 C386.28990769 360.35592488 383.49173343 362.52561386 380.69775391 364.70361328 C375.75586965 368.56851603 370.84114572 372.46499775 365.94775391 376.39111328 C360.59482499 380.685865 355.21000991 384.93674051 349.80297852 389.16308594 C344.48831553 393.33112557 339.25333249 397.5952245 334.03979492 401.88891602 C333.41258545 402.40268799 332.78537598 402.91645996 332.13916016 403.44580078 C331.59461182 403.8942334 331.05006348 404.34266602 330.48901367 404.8046875 C327.54494363 407.09275916 324.48188007 409.22388031 321.44775391 411.39111328 C321.77775391 380.37111328 322.10775391 349.35111328 322.44775391 317.39111328 C321.78775391 317.39111328 321.12775391 317.39111328 320.44775391 317.39111328 C320.34462891 316.25673828 320.24150391 315.12236328 320.13525391 313.95361328 C319.5250459 309.16389835 318.0767476 304.91835824 316.44775391 300.39111328 C316.09712891 299.31474609 315.74650391 298.23837891 315.38525391 297.12939453 C310.96347437 283.90769191 304.07872299 273.26489692 295.44775391 262.39111328 C294.87283203 261.66021484 294.29791016 260.92931641 293.70556641 260.17626953 C288.95878143 254.44151735 283.32932391 249.91918391 277.44775391 245.39111328 C276.67818359 244.78267578 275.90861328 244.17423828 275.11572266 243.54736328 C254.1353043 227.82098495 228.93559511 222.91300447 203.33912659 223.01016235 C201.33705308 223.00669967 199.33498148 223.00193104 197.33291382 222.99598062 C191.86787799 222.98352474 186.40300051 222.98961628 180.93796432 222.99893928 C175.02988066 223.00575174 169.12182345 222.99523764 163.21374512 222.98699951 C151.65393279 222.97368315 140.094179 222.97653065 128.53436441 222.98523743 C119.1360178 222.99212919 109.7376867 222.99300633 100.3393383 222.98966599 C99.6703132 222.98943683 99.00128811 222.98920767 98.31198952 222.98897158 C95.59582963 222.98803748 92.87966976 222.98708227 90.16350989 222.98609228 C64.70997614 222.97692572 39.25647424 222.9852189 13.80294542 223.00138297 C-8.78299812 223.01561699 -31.3688909 223.01434607 -53.95483398 223 C-79.36186455 222.98391577 -104.768867 222.97757757 -130.17590195 222.98683679 C-132.88727287 222.98779886 -135.59864379 222.98873739 -138.31001472 222.98966599 C-139.31134229 222.99002183 -139.31134229 222.99002183 -140.33289869 222.99038487 C-150.38828097 222.99378907 -160.44364199 222.98980288 -170.49902153 222.98222733 C-181.93979419 222.97379723 -193.38050513 222.97612415 -204.82127076 222.99206956 C-210.65413419 222.99993215 -216.48689488 223.00307824 -222.31975746 222.9931221 C-227.66717328 222.9841329 -233.01439183 222.9891773 -238.36178995 223.00505476 C-240.28826027 223.00838476 -242.21474751 223.00674902 -244.14120679 222.99942739 C-277.44480699 222.88264031 -305.23775183 233.50195144 -329.55224609 256.39111328 Z " fill="#546EF7" transform="translate(482.55224609375,-0.39111328125)"/>
<path d="M0 0 C5.42692236 4.22065745 10.72888378 8.58719675 16 13 C16.88993652 13.7412915 16.88993652 13.7412915 17.79785156 14.49755859 C23.32954388 19.1093705 28.79430884 23.78044106 34.125 28.625 C39.26218565 33.28238409 44.58189149 37.67425208 50 42 C51.53140625 43.24136719 51.53140625 43.24136719 53.09375 44.5078125 C68.37584708 56.72415046 86.33895558 66.62755048 106 69 C107.15886719 69.22429687 108.31773437 69.44859375 109.51171875 69.6796875 C119.43450112 70.82346626 124.82814859 67.85522684 132.625 61.75 C136.13973276 58.89604958 139.57577224 55.9614187 143 53 C144.28056698 51.93872934 145.56406108 50.88097223 146.8515625 49.828125 C154.16183017 43.78750832 161.01034206 37.2623685 167.87792969 30.72851562 C172.63268786 26.22400788 177.48657776 21.99573229 182.6171875 17.921875 C184.86956924 16.10519989 186.99620666 14.20881365 189.125 12.25 C213.84680104 -9.84182221 243.52578965 -27.51903008 276 -35 C276.75313477 -35.17877686 277.50626953 -35.35755371 278.28222656 -35.54174805 C284.60488624 -36.9437997 290.65805206 -37.35086325 297.125 -37.3125 C298.12982422 -37.30686035 299.13464844 -37.3012207 300.16992188 -37.29541016 C319.63267845 -36.98139444 336.31463276 -31.6589401 352 -20 C352.86238281 -19.37222656 353.72476563 -18.74445312 354.61328125 -18.09765625 C365.49502462 -9.82211581 373.37201989 0.1039925 380 12 C380.81791016 13.46759766 380.81791016 13.46759766 381.65234375 14.96484375 C393.24627697 36.94316499 394.26397397 59.62396341 394.375 84 C394.38294586 84.92502319 394.39089172 85.85004639 394.39907837 86.80310059 C394.57683241 113.76794122 388.0141692 135.40794107 370 156 C369.09507812 157.04994141 369.09507812 157.04994141 368.171875 158.12109375 C358.28248211 168.8059378 345.54386354 175.25412931 332 180 C330.78763672 180.47373047 330.78763672 180.47373047 329.55078125 180.95703125 C317.35943872 185.53160155 304.12371394 185.29111513 291.30050659 185.25396729 C289.54805946 185.25627622 287.7956133 185.25945563 286.04316914 185.26342177 C281.26367337 185.27171877 276.48425816 185.26766785 271.70476222 185.26144934 C266.53635426 185.25690493 261.3679597 185.26391839 256.19955444 185.26940918 C246.08944364 185.27828328 235.97936259 185.27639013 225.86925064 185.2705839 C217.65076794 185.2660601 209.43229356 185.26545761 201.21380997 185.26763153 C200.04241833 185.267938 198.8710267 185.26824446 197.66413835 185.26856022 C195.2842206 185.26919969 192.90430286 185.26984812 190.52438511 185.2705054 C168.23015911 185.27620275 145.93594957 185.26965987 123.64172627 185.25890467 C104.52400068 185.24996736 85.40629937 185.25152384 66.28857422 185.26074219 C44.06892883 185.27145128 21.84929785 185.27565595 -0.37034976 185.26951766 C-2.74071367 185.26888058 -5.11107758 185.26825184 -7.4814415 185.26763153 C-8.64760588 185.26732298 -9.81377026 185.26701443 -11.01527295 185.26669653 C-19.22221273 185.26497168 -27.42914334 185.2678801 -35.6360817 185.27259064 C-45.63978602 185.27820646 -55.64345897 185.27666814 -65.64715971 185.26602915 C-70.74838242 185.26078227 -75.84955286 185.25869897 -80.95077515 185.26532745 C-85.62504926 185.27130922 -90.29922289 185.26797516 -94.97348796 185.25737235 C-96.65967729 185.25514778 -98.3458752 185.25625329 -100.03205897 185.26112393 C-123.46770131 185.32359928 -145.16821732 180.16949785 -163 164 C-163.78117187 163.30003906 -164.56234375 162.60007812 -165.3671875 161.87890625 C-180.62323652 147.47041551 -189.46505628 125.77356519 -190.32055664 104.95605469 C-190.48314458 99.0277776 -190.51188279 93.10189448 -190.50097656 87.17163086 C-190.50000843 83.46973824 -190.54164536 79.76995206 -190.5859375 76.06835938 C-190.65870786 61.3363353 -189.22554863 48.11603088 -185 34 C-184.66790527 32.81664062 -184.33581055 31.63328125 -183.99365234 30.4140625 C-177.52592943 8.03754325 -160.39068443 -13.56931112 -140.22998047 -25.00390625 C-92.90877432 -51.07566608 -40.01334139 -30.4845654 0 0 Z " fill="#7059F8" transform="translate(361,542)"/>
<path d="M0 0 C5.42692236 4.22065745 10.72888378 8.58719675 16 13 C16.88993652 13.7412915 16.88993652 13.7412915 17.79785156 14.49755859 C23.32954388 19.1093705 28.79430884 23.78044106 34.125 28.625 C39.26218565 33.28238409 44.58189149 37.67425208 50 42 C51.53140625 43.24136719 51.53140625 43.24136719 53.09375 44.5078125 C73.41499669 60.75239045 95.17068418 68.6754197 121 70 C121 70.33 121 70.66 121 71 C120.21625 71.0825 119.4325 71.165 118.625 71.25 C115.85250896 71.72806339 115.85250896 71.72806339 114.6875 74.0625 C114.3471875 75.0215625 114.3471875 75.0215625 114 76 C113.34 76 112.68 76 112 76 C112 76.66 112 77.32 112 78 C110.515 78.495 110.515 78.495 109 79 C107.31002677 80.64302953 105.64783606 82.31471312 104 84 C102.78408702 85.11874499 101.55452797 86.22282058 100.3125 87.3125 C99.73113281 87.82425781 99.14976562 88.33601562 98.55078125 88.86328125 C97 90 97 90 95 90 C94.77199707 90.5554248 94.54399414 91.11084961 94.30908203 91.68310547 C92.625585 94.66266287 90.50629713 96.68175552 88.0546875 99.0703125 C87.32162888 99.79201126 87.32162888 99.79201126 86.57376099 100.52828979 C84.49682318 102.57284837 82.40848058 104.60559366 80.3203125 106.63867188 C73.70112772 113.09825702 67.64949868 119.65177758 62 127 C59.72744275 129.72474469 57.38306669 132.37130076 55 135 C54.51257324 135.53786133 54.02514648 136.07572266 53.52294922 136.62988281 C35.61824452 156.30759256 17.60540227 170.31891659 -6.74072266 181.11181641 C-7.54128082 181.46692291 -8.34183899 181.82202942 -9.16665649 182.18789673 C-10.07416153 182.58988785 -10.07416153 182.58988785 -11 183 C-9.83559277 182.99833454 -9.83559277 182.99833454 -8.64766216 182.99663544 C53.92933634 182.91211014 116.50372967 183.14934695 179.0799495 183.44538212 C192.20357245 183.5073882 205.32720546 183.56713217 218.4508394 183.62675762 C245.30057082 183.74879279 272.15028953 183.87344276 299 184 C299 184.33 299 184.66 299 185 C246.46311269 185.04578396 193.92622739 185.08102253 141.38932405 185.10213066 C135.18598163 185.10463205 128.98263924 185.1072207 122.77929688 185.10986328 C120.92684669 185.11065021 120.92684669 185.11065021 119.03697327 185.11145304 C99.04410761 185.12015417 79.05125347 185.13592254 59.05839464 185.15430559 C38.54183227 185.17301276 18.02527593 185.18411846 -2.49129462 185.18817699 C-15.14971557 185.19092035 -27.80810398 185.19958318 -40.46651492 185.21583293 C-49.14843923 185.22640988 -57.83034675 185.22959901 -66.51227704 185.22700275 C-71.52024492 185.22572258 -76.52815598 185.22767657 -81.53611374 185.23841095 C-86.12582062 185.24817676 -90.7154327 185.24861333 -95.30514404 185.24179779 C-96.96079938 185.240956 -98.61646074 185.24346473 -100.27210429 185.24976636 C-123.6106448 185.3333922 -145.2563762 180.08955718 -163 164 C-163.78117187 163.30003906 -164.56234375 162.60007812 -165.3671875 161.87890625 C-180.62323652 147.47041551 -189.46505628 125.77356519 -190.32055664 104.95605469 C-190.48314458 99.0277776 -190.51188279 93.10189448 -190.50097656 87.17163086 C-190.50000843 83.46973824 -190.54164536 79.76995206 -190.5859375 76.06835938 C-190.65870786 61.3363353 -189.22554863 48.11603088 -185 34 C-184.66790527 32.81664062 -184.33581055 31.63328125 -183.99365234 30.4140625 C-177.52592943 8.03754325 -160.39068443 -13.56931112 -140.22998047 -25.00390625 C-92.90877432 -51.07566608 -40.01334139 -30.4845654 0 0 Z " fill="#4874FA" transform="translate(361,542)"/>
<path d="M0 0 C1.16402344 -0.02449219 2.32804687 -0.04898437 3.52734375 -0.07421875 C11.39332866 -0.10064423 17.58460594 1.14535626 24.75 4.375 C25.78253906 4.83261719 26.81507813 5.29023438 27.87890625 5.76171875 C43.59163131 14.16033423 55.30022695 27.84828554 61.00390625 44.72265625 C62.10187533 48.6259076 62.57666663 52.33286574 62.75 56.375 C62.81316406 57.15746094 62.87632812 57.93992187 62.94140625 58.74609375 C63.74377898 75.75121904 57.75519553 92.11012702 46.5 104.75 C36.39026814 115.50699069 20.896743 124.02412114 5.9296875 124.7109375 C-13.08448841 125.03929117 -29.10044703 120.47595765 -43.125 107.1875 C-56.77417188 92.6538457 -61.84604222 76.82290158 -61.51953125 57.33984375 C-60.85601709 40.31400502 -52.49697854 25.92913783 -40.25 14.375 C-27.76686831 4.16879153 -15.93515167 0.01741547 0 0 Z " fill="#3575FA" transform="translate(265.25,366.625)"/>
<path d="M0 0 C9.0726402 7.00097595 15.10508779 15.75127756 20 26 C20.45375 26.90621094 20.9075 27.81242187 21.375 28.74609375 C26.68466448 41.44872856 25.75744951 58.9901815 21.3203125 71.8671875 C14.02153383 89.18559133 3.4589037 100.96222628 -13.6484375 108.63671875 C-27.48525931 114.06261854 -42.74702688 115.53157553 -56.98046875 110.32421875 C-73.10066793 103.25468767 -85.19307083 93.71590329 -92.60546875 77.484375 C-93.82791986 74.34400207 -94.95218245 71.20236609 -96 68 C-96.36609375 67.10410156 -96.7321875 66.20820313 -97.109375 65.28515625 C-98.37051427 60.63332238 -98.34094048 56.17453361 -98.3125 51.375 C-98.30686035 50.39168701 -98.3012207 49.40837402 -98.29541016 48.39526367 C-97.97881244 29.43231421 -89.85700972 15.37457827 -76.375 2.3125 C-54.06656008 -17.04889563 -23.71785023 -16.21171166 0 0 Z " fill="#805CF7" transform="translate(699,378)"/>
<path d="M0 0 C2.40158638 1.31608581 4.66613212 2.74555666 6.94238281 4.26806641 C7.79687012 4.80979492 8.65135742 5.35152344 9.53173828 5.90966797 C11.3277363 7.04932882 13.1175826 8.19873802 14.90136719 9.35742188 C18.28401438 11.5437519 21.71027937 13.6540581 25.1418457 15.76245117 C27.74069566 17.36027 30.33233445 18.96927764 32.92285156 20.58056641 C37.56750409 23.46534078 42.22431273 26.32990111 46.88514709 29.18844604 C51.83314561 32.22347539 56.77447814 35.26921732 61.71289062 38.31982422 C63.47329557 39.40569836 65.23532643 40.48894783 67 41.56787109 C68.96617894 42.77076243 70.92428422 43.98557977 72.87988281 45.20556641 C73.88664063 45.82689453 74.89339844 46.44822266 75.93066406 47.08837891 C79.46080345 49.75559533 82.6395295 52.86799312 84.37988281 57.01806641 C84.44175781 57.69869141 84.50363281 58.37931641 84.56738281 59.08056641 C84.67050781 60.15306641 84.77363281 61.22556641 84.87988281 62.33056641 C84.48252222 67.09889348 83.38332611 70.22505553 80.56738281 74.08056641 C78.7746582 75.51391602 78.7746582 75.51391602 76.66503906 76.85791016 C75.86219482 77.37281006 75.05935059 77.88770996 74.23217773 78.41821289 C73.35279541 78.96678955 72.47341309 79.51536621 71.56738281 80.08056641 C70.18160034 80.94887085 70.18160034 80.94887085 68.76782227 81.8347168 C65.66711309 83.76290394 62.55629101 85.67377299 59.44238281 87.58056641 C58.29428692 88.28529402 57.14625751 88.99012997 55.99829102 89.69506836 C47.66074133 94.81174255 39.30626508 99.90061335 30.94238281 104.97412109 C26.15822469 107.8797444 21.38921813 110.80695616 16.64160156 113.77197266 C15.68423096 114.36921143 14.72686035 114.9664502 13.74047852 115.58178711 C11.92558142 116.716078 10.11278315 117.85373668 8.30249023 118.99536133 C7.49013916 119.50301025 6.67778809 120.01065918 5.84082031 120.53369141 C5.1336084 120.97874023 4.42639648 121.42378906 3.69775391 121.88232422 C-1.98134592 125.07657381 -6.98712141 126.02237401 -13.43261719 125.08056641 C-19.64698551 122.70104759 -22.73222921 119.02141995 -25.43261719 113.08056641 C-26.25199636 110.34703575 -26.56202277 107.90195345 -26.57978821 105.05354309 C-26.58694351 104.26170624 -26.59409882 103.46986938 -26.60147095 102.65403748 C-26.60415985 101.79423782 -26.60684875 100.93443817 -26.60961914 100.04858398 C-26.61619034 99.13586731 -26.62276154 98.22315063 -26.62953186 97.28277588 C-26.64923442 94.26354892 -26.66092139 91.24437167 -26.67089844 88.22509766 C-26.67497396 87.19190588 -26.67904949 86.1587141 -26.68324852 85.09421349 C-26.70409737 79.62441585 -26.71840362 74.15464321 -26.7277832 68.68481445 C-26.73883855 63.04699315 -26.77323204 57.40956749 -26.8129549 51.77188587 C-26.83915266 47.42658271 -26.84747791 43.08137334 -26.85106468 38.73599815 C-26.85592329 36.6584678 -26.86751646 34.58094143 -26.88610268 32.50348854 C-26.91055865 29.58851776 -26.90951709 26.67456433 -26.90258789 23.75952148 C-26.91539795 22.90984299 -26.92820801 22.06016449 -26.94140625 21.18473816 C-26.88522109 14.66359242 -25.45400432 8.40225568 -20.94983387 3.45040607 C-15.09159973 -1.62951845 -7.28231176 -2.75242735 0 0 Z " fill="#5063FA" transform="translate(440.4326171875,384.91943359375)"/>
<path d="M0 0 C4.35249155 1.34836416 8.46110272 3.0371307 12.62353516 4.86889648 C28.46676533 11.81041986 43.15788948 14.15543807 60.39160156 14.12597656 C62.41278234 14.12884428 64.43396313 14.13171989 66.45514345 14.13489199 C68.61211894 14.1375593 70.76908652 14.13801666 72.92606354 14.13809967 C77.44185468 14.13924866 81.95756567 14.15214978 86.47332764 14.16766357 C87.23850559 14.17023643 88.00368353 14.17280928 88.79204869 14.1754601 C90.35589606 14.18072588 91.91974337 14.18601136 93.4835906 14.19131613 C103.98272583 14.22629714 114.4817585 14.2529804 124.98095703 14.25048828 C132.08254916 14.24889334 139.18386427 14.26507815 146.28536773 14.30119491 C150.03330593 14.31954333 153.7807822 14.32909576 157.52875519 14.31671906 C161.05856205 14.30517383 164.58754466 14.31723446 168.11724281 14.34635353 C170.00758816 14.35601971 171.89801076 14.34134307 173.78831482 14.32554626 C184.9845732 14.45942818 195.13867094 17.41318936 203.4375 25.125 C204.51860594 26.1001314 205.60201939 27.07270943 206.6875 28.04296875 C207.23019531 28.53458496 207.77289063 29.02620117 208.33203125 29.53271484 C211.09799498 31.96588844 214.01835706 34.19262996 216.9375 36.4375 C222.35542027 40.63817166 227.57394318 45.02520559 232.74975586 49.51928711 C237.30006624 53.45011041 241.98550802 57.1714833 246.7434082 60.84667969 C251.02285872 64.17347793 255.1133404 67.67632262 259.1875 71.25 C267.61783634 78.59804755 275.80114942 85.58067299 287.46044922 85.32519531 C295.13734894 84.34215066 301.69074462 78.09870488 307.375 73.25 C308.87100302 71.99598551 310.36709663 70.74207907 311.86328125 69.48828125 C312.57693848 68.88580566 313.2905957 68.28333008 314.02587891 67.66259766 C316.51850794 65.56331448 319.03690099 63.49695214 321.5625 61.4375 C322.41585938 60.74011719 323.26921875 60.04273438 324.1484375 59.32421875 C329.0329367 55.34301734 333.92384296 51.36972254 338.81640625 47.3984375 C341.57711254 45.15717397 344.33478 42.91225796 347.08984375 40.6640625 C350.4075741 37.95730348 353.73351882 35.2609176 357.06396484 32.56982422 C358.98274839 31.01398838 360.89170841 29.44663152 362.80078125 27.87890625 C371.77054511 20.58324466 379.89522641 14.86908174 391.79595947 14.87974548 C393.57117981 14.87768349 393.57117981 14.87768349 395.38226318 14.87557983 C397.32434662 14.88097275 397.32434662 14.88097275 399.30566406 14.88647461 C400.68554685 14.88675674 402.0654298 14.88659824 403.4453125 14.8860321 C407.18877105 14.88574515 410.93219758 14.89162543 414.67564869 14.89860606 C418.58875682 14.90485654 422.50186568 14.90544474 426.41497803 14.90663147 C433.82387226 14.90973978 441.23275174 14.91794644 448.64163947 14.92798096 C457.07687805 14.93915761 465.51211733 14.94465646 473.94736147 14.94967639 C491.29824951 14.96012946 508.6491232 14.97771924 526 15 C524.25872444 17.2163373 523.38723992 17.9429033 520.55323792 18.36076355 C519.57475388 18.35410172 518.59626984 18.34743988 517.58813477 18.34057617 C516.46399673 18.34036469 515.3398587 18.3401532 514.18165588 18.3399353 C512.9473735 18.32443634 511.71309113 18.30893738 510.44140625 18.29296875 C508.44650241 18.28624365 506.45159856 18.27951941 504.4566946 18.27282715 C502.31024218 18.26270782 500.16396343 18.24514216 498.01757812 18.22549438 C493.53647884 18.1849065 489.05546874 18.16723802 484.57421875 18.15307617 C474.2421468 18.11692794 463.91030482 18.05099001 453.57839203 17.98439026 C444.12975619 17.92372783 434.68120171 17.86950613 425.23241138 17.83974552 C420.78705257 17.82487851 416.34211171 17.7954169 411.8969202 17.75445557 C409.78930165 17.73736149 407.68178648 17.72730533 405.57411194 17.7203064 C403.01686755 17.71177758 400.45962426 17.69260063 397.90257263 17.6600647 C388.39966851 17.65831206 379.15243821 18.60660518 371.4375 24.625 C370.53128906 25.32753906 369.62507813 26.03007813 368.69140625 26.75390625 C365.16400372 29.69767469 361.75528558 32.75236218 358.375 35.86328125 C355.57714744 38.38042821 352.65207257 40.65794471 349.66015625 42.9375 C346.16229698 45.64949661 342.74025301 48.45022918 339.3125 51.25 C334.18868815 55.43214156 329.03174261 59.56264908 323.8125 63.625 C319.1571245 67.25084037 314.61197856 70.98038834 310.125 74.8125 C308.08577891 76.54459487 306.0434237 78.27285318 304 80 C303.23816406 80.64453125 302.47632813 81.2890625 301.69140625 81.953125 C294.55071061 87.68795269 288.61487809 88.37020508 279.61328125 87.484375 C276.87646952 86.97710347 274.54274979 86.1178936 272 85 C272 84.34 272 83.68 272 83 C271.1646875 82.5978125 271.1646875 82.5978125 270.3125 82.1875 C265.38582898 79.65758786 261.92078034 76.92078034 258 73 C256.906875 72.278125 255.81375 71.55625 254.6875 70.8125 C253.800625 70.214375 252.91375 69.61625 252 69 C252 68.34 252 67.68 252 67 C251.195625 66.71125 250.39125 66.4225 249.5625 66.125 C247 65 247 65 246 63 C245.154375 62.505 244.30875 62.01 243.4375 61.5 C242.2309375 60.7575 242.2309375 60.7575 241 60 C241 59.34 241 58.68 241 58 C240.01 58 239.02 58 238 58 C238 57.34 238 56.68 238 56 C237.34 56 236.68 56 236 56 C235.67 55.34 235.34 54.68 235 54 C234.01 53.67 233.02 53.34 232 53 C230.97935978 52.02107532 229.98147474 51.01818826 229 50 C226.97381721 48.45929863 224.9102732 46.98053055 222.83984375 45.5 C221 44 221 44 219 41 C218.401875 40.71125 217.80375 40.4225 217.1875 40.125 C213.60571538 38.28293934 211.14875453 35.24065489 208.4375 32.3125 C207.0098037 30.8839515 207.0098037 30.8839515 204.9375 30 C203 29 203 29 201 26 C200.01 25.67 199.02 25.34 198 25 C197.52175781 24.51789062 197.04351562 24.03578125 196.55078125 23.5390625 C194.82010187 21.8214613 193.46892673 21.1939737 191.1875 20.375 C190.54167969 20.13523437 189.89585937 19.89546875 189.23046875 19.6484375 C182.553888 17.70743504 175.97515609 17.88313954 169.08569336 17.93408203 C167.88959946 17.93875488 166.69350555 17.94342773 165.46116638 17.94824219 C162.18746328 17.96147388 158.91381045 17.9789843 155.64013362 17.99740076 C152.19065224 18.01491785 148.7411527 18.02423378 145.29164124 18.03366089 C133.55691265 18.06695393 121.82225494 18.10817198 110.08764648 18.17138672 C103.60177041 18.20624213 97.11594879 18.22983631 90.62998873 18.24159515 C87.21042762 18.24828016 83.79109735 18.26037929 80.3716259 18.28662491 C52.3191782 18.48345786 25.63727026 16.53213988 1 2 C0.67 1.34 0.34 0.68 0 0 Z " fill="#4648E2" transform="translate(176,747)"/>
<path d="M0 0 C0.85625721 -0.00156141 1.71251442 -0.00312281 2.59471881 -0.00473154 C5.48779484 -0.00874504 8.38081878 -0.00555226 11.27389526 -0.00241089 C13.35703054 -0.00374613 15.44016558 -0.00550454 17.52330017 -0.00765228 C23.25915797 -0.01220246 28.99499828 -0.01032378 34.73085642 -0.00724077 C39.631964 -0.0053398 44.53306789 -0.00694527 49.43417537 -0.0085777 C62.72227777 -0.01297464 76.0103681 -0.00999892 89.29846847 -0.0035814 C98.34775995 0.00075868 107.39704988 0.00330516 116.44634232 0.00440702 C192.71811163 0.01398017 268.9885133 0.17376902 464.73825073 1.12698364 C464.73825073 1.45698364 464.73825073 1.78698364 464.73825073 2.12698364 C389.96602252 2.82952509 315.19747308 3.22777023 240.42184448 3.22463989 C239.50069794 3.22461202 238.57955139 3.22458415 237.63049132 3.22455543 C214.1974731 3.22362745 190.76446269 3.21313513 167.33144915 3.19901025 C153.76156504 3.1909245 140.19168166 3.18556648 126.62179565 3.18191528 C125.64818427 3.18165256 124.67457288 3.18138984 123.67145812 3.18111915 C118.78091896 3.17981291 113.89037979 3.17854949 108.99984062 3.17730725 C69.24597352 3.16715529 29.49211251 3.14974585 -10.26174927 3.12698364 C-10.59174927 2.46698364 -10.92174927 1.80698364 -11.26174927 1.12698364 C-7.47677422 -0.13467471 -3.94276484 -0.01095614 0 0 Z " fill="#3C7BF4" transform="translate(236.26174926757813,219.87301635742188)"/>
<path d="M0 0 C0.66 0 1.32 0 2 0 C3.06829381 5.21994053 3.14033515 10.23010667 3.12698364 15.5305481 C3.12932363 16.96030702 3.12932363 16.96030702 3.13171089 18.41894996 C3.13569641 21.61020767 3.13254046 24.80141772 3.12939453 27.99267578 C3.13074985 30.28307625 3.13253053 32.5734765 3.13470459 34.86387634 C3.13926896 41.09041454 3.13749193 47.31693618 3.1343255 53.54347467 C3.13179007 60.08203329 3.13414337 66.6205905 3.13571167 73.15914917 C3.13784961 84.86848271 3.13453825 96.57780933 3.12945233 108.28714167 C3.1250077 118.84475184 3.12574118 129.40235098 3.13037109 139.95996094 C3.13576106 152.25622055 3.13769266 164.55247314 3.13475883 176.84873378 C3.1332127 183.34299729 3.13295537 189.83725326 3.13629532 196.33151627 C3.15645964 242.78215175 3.15645964 242.78215175 2.67919922 259.96044922 C2.65723543 261.03003939 2.63527164 262.09962955 2.61264229 263.20163155 C2.40716507 268.84704217 1.60954239 272.96903218 -1 278 C-1.33 277.34 -1.66 276.68 -2 276 C-1.67 275.34 -1.34 274.68 -1 274 C-0.90191407 272.49406452 -0.86615847 270.9838635 -0.8613348 269.4747448 C-0.85586036 268.51631231 -0.85038591 267.55787983 -0.84474558 266.57040393 C-0.84376747 265.51010978 -0.84278936 264.44981563 -0.84178162 263.35739136 C-0.83684364 262.23678916 -0.83190566 261.11618696 -0.82681805 259.96162713 C-0.8113773 256.18128814 -0.80306468 252.40096622 -0.79467773 248.62060547 C-0.78565613 245.92083355 -0.77513841 243.22106795 -0.76467896 240.52130127 C-0.7428968 234.69582711 -0.72475869 228.87035067 -0.70907402 223.04485703 C-0.68639121 214.62210284 -0.6582462 206.19937392 -0.62875474 197.77664115 C-0.58105932 184.11233571 -0.53780043 170.44801996 -0.49731445 156.78369141 C-0.45796944 143.50764157 -0.41654561 130.23160091 -0.37231445 116.95556641 C-0.36959018 116.13765506 -0.36686591 115.31974372 -0.36405908 114.47704719 C-0.35037977 110.37395282 -0.33665946 106.27085859 -0.32291877 102.16776443 C-0.20892337 68.11186189 -0.1021208 34.05594021 0 0 Z " fill="#8168F7" transform="translate(911,363)"/>
<path d="M0 0 C-0.33 0.33 -0.66 0.66 -1 1 C0.16440723 0.99833454 0.16440723 0.99833454 1.35233784 0.99663544 C63.92933634 0.91211014 126.50372967 1.14934695 189.0799495 1.44538212 C202.20357245 1.5073882 215.32720546 1.56713217 228.4508394 1.62675762 C255.30057082 1.74879279 282.15028953 1.87344276 309 2 C309 2.33 309 2.66 309 3 C201.75 3 94.5 3 -16 3 C-16 2.67 -16 2.34 -16 2 C-13.71022755 1.47090114 -11.41810812 0.95194981 -9.125 0.4375 C-7.84882813 0.14746094 -6.57265625 -0.14257812 -5.2578125 -0.44140625 C-2 -1 -2 -1 0 0 Z " fill="#3B42F5" transform="translate(351,724)"/>
<path d="M0 0 C2.64727658 1.45525148 5.1641181 3.02073205 7.68457031 4.68554688 C8.54695313 5.224375 9.40933594 5.76320313 10.29785156 6.31835938 C14.49780204 8.97164088 18.51396337 11.71787185 22.30957031 14.93554688 C21.31957031 15.26554687 20.32957031 15.59554688 19.30957031 15.93554688 C19.30957031 15.27554687 19.30957031 14.61554688 19.30957031 13.93554688 C18.10300781 13.62617188 18.10300781 13.62617188 16.87207031 13.31054688 C12.14425932 11.48577772 5.67078655 8.65797935 3.30957031 3.93554688 C-2.55057051 1.94728481 -9.7810881 0.66356342 -15.69042969 2.93554688 C-19.40364704 6.05660011 -22.15126325 9.31804755 -23.69042969 13.93554688 C-23.78932008 15.26802184 -23.83642247 16.60475808 -23.84864807 17.94084167 C-23.85843689 18.75272446 -23.86822571 19.56460724 -23.87831116 20.40109253 C-23.88406662 21.2879776 -23.88982208 22.17486267 -23.89575195 23.08862305 C-23.90565155 24.0254039 -23.91555115 24.96218475 -23.92575073 25.92735291 C-23.95737058 29.02771466 -23.98212515 32.12809174 -24.00683594 35.22851562 C-24.02740504 37.37657574 -24.0484015 39.5246318 -24.06980896 41.67268372 C-24.12503412 47.329587 -24.17444148 52.98652685 -24.22265625 58.64349365 C-24.27286799 64.41470599 -24.32855577 70.18586517 -24.38378906 75.95703125 C-24.49137609 87.28315772 -24.5928199 98.60933033 -24.69042969 109.93554688 C-25.35042969 109.60554688 -26.01042969 109.27554688 -26.69042969 108.93554688 C-26.78327069 96.70458708 -26.8542664 84.47371167 -26.89767838 72.24247074 C-26.9185181 66.56248047 -26.94676997 60.882732 -26.9921875 55.20288086 C-27.03577376 49.71747409 -27.05959397 44.23229934 -27.06993866 38.74673271 C-27.07730708 36.65802803 -27.0916958 34.56933548 -27.11334991 32.48073006 C-27.14255352 29.54620436 -27.14637858 26.61262706 -27.14453125 23.67797852 C-27.15891235 22.82201584 -27.17329346 21.96605316 -27.18811035 21.08415222 C-27.14378803 14.54125271 -25.72870971 8.27516038 -21.20758438 3.3056345 C-15.22065211 -1.88703314 -7.37184747 -2.91662931 0 0 Z " fill="#487FF9" transform="translate(440.6904296875,385.064453125)"/>
<path d="M0 0 C3.33873411 2.21364631 6.63377483 4.40579518 9.76171875 6.91015625 C10.40560547 7.42513672 11.04949219 7.94011719 11.71289062 8.47070312 C12.36451172 8.99599609 13.01613281 9.52128906 13.6875 10.0625 C14.35072266 10.59166016 15.01394531 11.12082031 15.69726562 11.66601562 C18.60794748 14.00218223 21.39505804 16.32109604 24 19 C20 19 20 19 17.8125 16.9375 C17.4 16.48890625 16.9875 16.0403125 16.5625 15.578125 C13.37964096 12.36343737 9.73482789 9.54614003 6 7 C5.34 7 4.68 7 4 7 C2.82560186 9.34879628 2.85114356 10.8005864 2.81054688 13.42016602 C2.78539505 14.80167343 2.78539505 14.80167343 2.75973511 16.21109009 C2.74621002 17.21521942 2.73268494 18.21934875 2.71875 19.25390625 C2.69181564 20.81448257 2.69181564 20.81448257 2.66433716 22.40658569 C2.62601011 24.63624983 2.58963018 26.86594811 2.55499268 29.09567261 C2.46391329 34.83746448 2.35197314 40.57885307 2.2421875 46.3203125 C2.22110931 47.43778366 2.20003113 48.55525482 2.17831421 49.70658875 C1.86068125 66.49610498 1.86068125 66.49610498 1.625 73.9375 C1.60630859 74.84250244 1.58761719 75.74750488 1.56835938 76.67993164 C1.2711061 84.88839104 -0.86733713 92.43321837 -4 100 C-4.33 100 -4.66 100 -5 100 C-4.64518993 94.57997023 -3.9182827 89.51441516 -2.48901367 84.26879883 C-0.50372097 75.81192203 -0.52080502 67.52485957 -0.48828125 58.88671875 C-0.47139603 57.17892703 -0.45324077 55.47114745 -0.43388367 53.76338196 C-0.38679409 49.3133219 -0.35672124 44.86331104 -0.33044434 40.41308594 C-0.3004293 35.85406783 -0.25397211 31.29521872 -0.20898438 26.73632812 C-0.12341954 17.82430791 -0.05586852 8.91225247 0 0 Z " fill="#5240EA" transform="translate(804,586)"/>
<path d="M0 0 C1.36275245 -0.00067652 2.72550479 -0.00164942 4.08825684 -0.00289917 C6.92196825 -0.00435978 9.7556478 -0.00227498 12.58935547 0.00244141 C16.18278289 0.00813767 19.77613555 0.00484979 23.36956024 -0.00113106 C26.17690574 -0.00478132 28.98423413 -0.00357781 31.7915802 -0.00100327 C33.74822031 -0.00003191 35.70486115 -0.0030158 37.66149902 -0.00613403 C45.6202081 0.01445677 53.48081383 0.40483713 61.40625 1.1328125 C61.40625 1.4628125 61.40625 1.7928125 61.40625 2.1328125 C49.7008809 2.88800624 38.06424557 3.27344308 26.3359375 3.23046875 C24.79224698 3.2285956 23.24855584 3.22717596 21.7048645 3.22618103 C17.71020768 3.2224263 13.71558927 3.21265947 9.72094727 3.20147705 C5.61735554 3.19110822 1.5137574 3.18665084 -2.58984375 3.18164062 C-10.59116314 3.17102817 -18.59245175 3.15404057 -26.59375 3.1328125 C-26.92375 2.4728125 -27.25375 1.8128125 -27.59375 1.1328125 C-18.37846682 0.28636077 -9.25139596 -0.01474367 0 0 Z " fill="#3C89F9" transform="translate(469.59375,-0.1328125)"/>
<path d="M0 0 C0.99 0.33 1.98 0.66 3 1 C-2.03747635 6.29728889 -7.34070062 11.04674784 -13.046875 15.61328125 C-15.15063012 17.31353837 -17.21663002 19.02949941 -19.265625 20.79296875 C-19.80541992 21.25461426 -20.34521484 21.71625977 -20.90136719 22.19189453 C-22.42731153 23.50017974 -23.94816268 24.81439853 -25.46875 26.12890625 C-28 28 -28 28 -31 28 C-31.33 28.99 -31.66 29.98 -32 31 C-33.92578125 32.3515625 -33.92578125 32.3515625 -36.3125 33.625 C-37.48232422 34.26308594 -37.48232422 34.26308594 -38.67578125 34.9140625 C-40.79548602 35.90444557 -42.71611553 36.52963478 -45 37 C-45 36.34 -45 35.68 -45 35 C-48.3 35 -51.6 35 -55 35 C-55 34.67 -55 34.34 -55 34 C-53.68902344 34.13535156 -53.68902344 34.13535156 -52.3515625 34.2734375 C-39.80944689 34.61525616 -33.10135018 28.69516759 -23.94580078 20.68847656 C-21.5771754 18.63309223 -19.11266211 16.72117173 -16.625 14.8125 C-10.82992497 10.16225623 -5.42528745 5.07105906 0 0 Z " fill="#5C53F8" transform="translate(522,579)"/>
<path d="M0 0 C0.33 0 0.66 0 1 0 C1.33 28.38 1.66 56.76 2 86 C2.99 86.33 3.98 86.66 5 87 C7.19038423 85.62831762 7.19038423 85.62831762 9 84 C9.66 84.33 10.32 84.66 11 85 C9.54712339 86.33927721 8.08752741 87.67126847 6.625 89 C5.81289063 89.7425 5.00078125 90.485 4.1640625 91.25 C2 93 2 93 0 93 C0 62.31 0 31.62 0 0 Z " fill="#4C4EEF" transform="translate(804,318)"/>
<path d="M0 0 C-0.96486328 0.30067383 -0.96486328 0.30067383 -1.94921875 0.60742188 C-20.01710181 6.29068609 -35.93965935 12.26694391 -51 24 C-52.39045258 25.00746827 -53.7855558 26.00858528 -55.1875 27 C-56.115625 27.66 -57.04375 28.32 -58 29 C-57.67 27.68 -57.34 26.36 -57 25 C-55.68 24.67 -54.36 24.34 -53 24 C-53 23.34 -53 22.68 -53 22 C-50.82509352 20.33379013 -48.66317206 18.80979193 -46.375 17.3125 C-45.69566406 16.86624268 -45.01632813 16.41998535 -44.31640625 15.96020508 C-33.28567937 8.84216297 -13.61494791 -3.80910373 0 0 Z " fill="#3C8FFA" transform="translate(214,224)"/>
<path d="M0 0 C0.66 0 1.32 0 2 0 C0.42491141 3.66379303 -1.84193573 6.29851305 -4.5 9.25 C-5.2940625 10.14203125 -6.088125 11.0340625 -6.90625 11.953125 C-9 14 -9 14 -11 14 C-11 14.66 -11 15.32 -11 16 C-13.0546875 17.69921875 -13.0546875 17.69921875 -15.875 19.6875 C-16.88175781 20.3990625 -17.88851562 21.110625 -18.92578125 21.84375 C-20.44751953 22.91109375 -20.44751953 22.91109375 -22 24 C-22.85980469 24.6290625 -23.71960938 25.258125 -24.60546875 25.90625 C-30.03638694 29.84344983 -35.66932544 33.66252016 -42 36 C-42.66 35.67 -43.32 35.34 -44 35 C-42.96875 34.360625 -41.9375 33.72125 -40.875 33.0625 C-39.78251953 32.37607422 -39.78251953 32.37607422 -38.66796875 31.67578125 C-36.69577658 30.43702512 -34.71841442 29.20649132 -32.73828125 27.98046875 C-21.74955516 21.11653858 -12.04261359 13.63684289 -3.52661133 3.80932617 C-2.38782311 2.50649141 -1.19794777 1.24865455 0 0 Z " fill="#5E4AE9" transform="translate(780,719)"/>
<path d="M0 0 C2.64727658 1.45525148 5.1641181 3.02073205 7.68457031 4.68554688 C8.54695313 5.224375 9.40933594 5.76320313 10.29785156 6.31835938 C14.49780204 8.97164088 18.51396337 11.71787185 22.30957031 14.93554688 C21.31957031 15.26554687 20.32957031 15.59554688 19.30957031 15.93554688 C19.30957031 15.27554687 19.30957031 14.61554688 19.30957031 13.93554688 C18.10300781 13.62617188 18.10300781 13.62617188 16.87207031 13.31054688 C12.14425932 11.48577772 5.67078655 8.65797935 3.30957031 3.93554688 C-2.56216665 1.9433504 -9.75011402 0.72784335 -15.69042969 2.93554688 C-17.56010011 4.64192731 -18.96789025 6.35630096 -20.40136719 8.43945312 C-20.82675781 8.93316406 -21.25214844 9.426875 -21.69042969 9.93554688 C-22.68042969 9.93554688 -23.67042969 9.93554688 -24.69042969 9.93554688 C-23.25222156 4.90181843 -20.78797453 2.94598799 -16.69042969 -0.06445312 C-11.1951096 -1.89622649 -5.44037208 -2.15245211 0 0 Z " fill="#4091FB" transform="translate(440.6904296875,385.064453125)"/>
<path d="M0 0 C0.66 0 1.32 0 2 0 C0.71255711 3.44330243 -0.79358991 6.45433236 -2.75 9.5625 C-8.68290616 19.34455992 -12.94843058 28.96740288 -16 40 C-16.41616084 41.43764652 -16.83271349 42.87517981 -17.25 44.3125 C-17.4975 45.199375 -17.745 46.08625 -18 47 C-18.66 46.67 -19.32 46.34 -20 46 C-19.86980469 45.48308594 -19.73960938 44.96617187 -19.60546875 44.43359375 C-19.1377635 42.55372041 -18.68490767 40.67014878 -18.23828125 38.78515625 C-16.03961011 29.94408623 -13.12888901 22.16143727 -9 14 C-8.34 14 -7.68 14 -7 14 C-6.34 11.69 -5.68 9.38 -5 7 C-4.34 7 -3.68 7 -3 7 C-2.690625 6.030625 -2.38125 5.06125 -2.0625 4.0625 C-1 1 -1 1 0 0 Z " fill="#368BFA" transform="translate(140,268)"/>
<path d="M0 0 C5.80030391 0.36297271 8.9184145 2.00384664 13.0625 5.875 C14.18401537 6.87484935 15.30779591 7.87216254 16.43359375 8.8671875 C17.30153564 9.6401416 17.30153564 9.6401416 18.18701172 10.42871094 C21.8074562 13.56649449 25.62495647 16.45823738 29.41821289 19.38232422 C32.09836584 21.46036594 34.68982451 23.50959805 37 26 C36.505 27.485 36.505 27.485 36 29 C30.125 24.25 30.125 24.25 29 22 C28.4225 21.731875 27.845 21.46375 27.25 21.1875 C23.65607022 19.29070372 21.17484513 16.26883274 18.4375 13.3125 C17.0098037 11.8839515 17.0098037 11.8839515 14.9375 11 C13 10 13 10 11 7 C10.01 6.67 9.02 6.34 8 6 C7.54625 5.525625 7.0925 5.05125 6.625 4.5625 C4.61423786 2.62907486 2.60947795 1.9168436 0 1 C0 0.67 0 0.34 0 0 Z " fill="#4545E5" transform="translate(366,766)"/>
<path d="M0 0 C0.66 0.33 1.32 0.66 2 1 C-1.60217923 5.62746744 -5.39997758 9.15228947 -10.0625 12.6875 C-10.67416016 13.15994141 -11.28582031 13.63238281 -11.91601562 14.11914062 C-14.92477431 16.43832435 -17.95454411 18.72919872 -21 21 C-22.32 20.34 -23.64 19.68 -25 19 C-24.07380859 18.48953125 -24.07380859 18.48953125 -23.12890625 17.96875 C-16.68857212 14.28295756 -11.42384054 10.03125779 -6 5 C-4.0205763 3.30626632 -2.01407537 1.65257466 0 0 Z " fill="#574FE9" transform="translate(493,812)"/>
<path d="M0 0 C1.76094314 5.28282942 -1.70313596 10.16611724 -4 15 C-7.09994816 20.72072453 -11.02514506 25.86410496 -15 31 C-15.33 30.34 -15.66 29.68 -16 29 C-14.8125 26.9609375 -14.8125 26.9609375 -13 24.375 C-9.38440992 18.91900936 -6.79241792 13.33451951 -4.31054688 7.30810547 C-2.18284349 2.18284349 -2.18284349 2.18284349 0 0 Z " fill="#5E49EA" transform="translate(798,687)"/>
<path d="M0 0 C0.33 0.99 0.66 1.98 1 3 C-2.17702542 7.71740138 -4.36020183 9.59005046 -10 11 C-10.33 11.33 -10.66 11.66 -11 12 C-16.49531695 12.43962536 -20.08193401 11.41263615 -25 9 C-25.804375 8.608125 -26.60875 8.21625 -27.4375 7.8125 C-27.953125 7.544375 -28.46875 7.27625 -29 7 C-29 6.34 -29 5.68 -29 5 C-24.25 6.875 -24.25 6.875 -22 8 C-15.54626762 8.50238635 -9.44057496 8.94441685 -4 5 C-1.65674336 2.44860147 -1.65674336 2.44860147 0 0 Z " fill="#8261F5" transform="translate(908,641)"/>
<path d="M0 0 C0.33 0 0.66 0 1 0 C1.07524476 5.1370946 1.12910777 10.27385498 1.16479492 15.41137695 C1.17970213 17.15199383 1.20003508 18.89257438 1.22631836 20.63305664 C1.39119927 31.84819141 0.74690488 42.0898017 -2 53 C-2.99 52.67 -3.98 52.34 -5 52 C-4.34 52 -3.68 52 -3 52 C-2.93941406 50.79601562 -2.87882813 49.59203125 -2.81640625 48.3515625 C-2.73200268 46.77602923 -2.64735459 45.20050904 -2.5625 43.625 C-2.50352539 42.43390625 -2.50352539 42.43390625 -2.44335938 41.21875 C-2.11328125 35.2265625 -2.11328125 35.2265625 -1 33 C-0.84373424 30.52167341 -0.74186802 28.06688669 -0.68359375 25.5859375 C-0.66281265 24.85629791 -0.64203156 24.12665833 -0.62062073 23.37490845 C-0.55518083 21.04170237 -0.49626632 18.70838279 -0.4375 16.375 C-0.39430947 14.79425905 -0.35069501 13.21352961 -0.30664062 11.6328125 C-0.19950519 7.75532496 -0.09822218 3.87772315 0 0 Z " fill="#905DF4" transform="translate(754,609)"/>
<path d="M0 0 C3.37299045 3.0567726 5.91522404 6.24878912 8.5 10 C13.54543917 17.11212868 19.728557 22.98668042 26 29 C25.01 29.33 24.02 29.66 23 30 C22.67 29.01 22.34 28.02 22 27 C21.34 27 20.68 27 20 27 C18.4140625 25.390625 18.4140625 25.390625 16.625 23.25 C14.74097591 21.02661753 12.90420976 18.90694662 10.8125 16.875 C8.49936524 14.48210197 6.84252879 11.76379318 5 9 C4.34 8.67 3.68 8.34 3 8 C3 7.01 3 6.02 3 5 C2.34 5 1.68 5 1 5 C0.67 3.35 0.34 1.7 0 0 Z " fill="#4861F1" transform="translate(136,707)"/>
<path d="M0 0 C4.79783954 3.08698203 9.24760278 6.48335437 13.6875 10.0625 C14.35072266 10.59166016 15.01394531 11.12082031 15.69726562 11.66601562 C18.60794748 14.00218223 21.39505804 16.32109604 24 19 C20 19 20 19 17.8125 16.9375 C17.4 16.48890625 16.9875 16.0403125 16.5625 15.578125 C13.37964096 12.36343737 9.73482789 9.54614003 6 7 C5.34 7 4.68 7 4 7 C3.34 7.66 2.68 8.32 2 9 C0 7 0 7 -0.125 3.375 C-0.08375 2.26125 -0.0425 1.1475 0 0 Z " fill="#6150EE" transform="translate(804,586)"/>
<path d="M0 0 C0.99 0.33 1.98 0.66 3 1 C-0.49198926 4.59469482 -4.14531189 7.78775991 -8 11 C-9.70763405 12.63163987 -11.35384651 14.30543023 -13 16 C-13 11.07785363 -9.29608605 8.40860305 -6 5 C-4.05257845 3.08398848 -2.25028023 1.58542471 0 0 Z " fill="#4A85FB" transform="translate(230,377)"/>
<path d="M0 0 C0.99386719 0.00902344 1.98773438 0.01804687 3.01171875 0.02734375 C4.15060547 0.04474609 4.15060547 0.04474609 5.3125 0.0625 C5.3125 0.3925 5.3125 0.7225 5.3125 1.0625 C4.64863281 1.17207031 3.98476563 1.28164063 3.30078125 1.39453125 C-3.32938153 2.58505683 -7.51746903 3.89246903 -12.375 8.75 C-13.138125 9.513125 -13.90125 10.27625 -14.6875 11.0625 C-15.3475 11.0625 -16.0075 11.0625 -16.6875 11.0625 C-15.24929187 6.02877156 -12.78504485 4.07294111 -8.6875 1.0625 C-5.53819107 0.01273036 -3.29935544 -0.03881595 0 0 Z " fill="#4B9CFB" transform="translate(432.6875,383.9375)"/>
<path d="M0 0 C0 3 0 3 -1.37695312 4.7175293 C-2.00537109 5.33023682 -2.63378906 5.94294434 -3.28125 6.57421875 C-3.95800781 7.24130859 -4.63476562 7.90839844 -5.33203125 8.59570312 C-6.04746094 9.28599609 -6.76289063 9.97628906 -7.5 10.6875 C-8.57314453 11.7403418 -8.57314453 11.7403418 -9.66796875 12.81445312 C-11.43879577 14.54986361 -13.21623456 16.2779073 -15 18 C-15.66 17.34 -16.32 16.68 -17 16 C-14.91975578 13.89270058 -12.83597761 11.78911127 -10.75 9.6875 C-9.87021484 8.79514648 -9.87021484 8.79514648 -8.97265625 7.88476562 C-6.12147184 5.01756332 -3.34887496 2.29613457 0 0 Z " fill="#5284FB" transform="translate(213,522)"/>
<path d="M0 0 C0.66 0 1.32 0 2 0 C2.54109249 8.11638732 0.08924095 15.55895875 -3 23 C-3.33 23 -3.66 23 -4 23 C-3.48400816 15.1177798 -1.9078547 7.65541695 0 0 Z " fill="#5D48EB" transform="translate(803,663)"/>
<path d="M0 0 C3.62104791 1.28908199 6.26812542 2.79002898 9.20703125 5.2578125 C9.95791016 5.88300781 10.70878906 6.50820313 11.48242188 7.15234375 C12.25134766 7.80332031 13.02027344 8.45429687 13.8125 9.125 C14.60076172 9.78371094 15.38902344 10.44242188 16.20117188 11.12109375 C18.1389481 12.74177932 20.07161245 14.3681652 22 16 C21.34 16.66 20.68 17.32 20 18 C19.278125 17.236875 18.55625 16.47375 17.8125 15.6875 C15.20464401 12.99787607 15.20464401 12.99787607 12.5 11.5 C9.49815707 9.69889424 7.41118597 7.53174527 5 5 C4.071875 4.071875 3.14375 3.14375 2.1875 2.1875 C1.465625 1.465625 0.74375 0.74375 0 0 Z " fill="#6C55F3" transform="translate(828,606)"/>
<path d="M0 0 C1.85625 0.0309375 1.85625 0.0309375 3.75 0.0625 C2.75 2.0625 2.75 2.0625 1.01586914 2.67260742 C-0.08833374 2.91781128 -0.08833374 2.91781128 -1.21484375 3.16796875 C-2.01470703 3.34650391 -2.81457031 3.52503906 -3.63867188 3.70898438 C-4.47978516 3.88751953 -5.32089844 4.06605469 -6.1875 4.25 C-7.44336914 4.53520508 -7.44336914 4.53520508 -8.72460938 4.82617188 C-14.99047619 6.1922619 -14.99047619 6.1922619 -17.25 5.0625 C-15.83521865 4.41254703 -14.41808513 3.76771278 -13 3.125 C-12.21109375 2.76535156 -11.4221875 2.40570313 -10.609375 2.03515625 C-6.97503403 0.53689317 -3.9268481 -0.06544747 0 0 Z " fill="#5E94FB" transform="translate(256.25,366.9375)"/>
<path d="M0 0 C-3.73290261 2.45233288 -7.32106265 2.17346789 -11.609375 1.9765625 C-12.33618469 1.95153656 -13.06299438 1.92651062 -13.81182861 1.90072632 C-16.12504558 1.81878887 -18.43737481 1.72210045 -20.75 1.625 C-22.32157874 1.56673343 -23.89319354 1.50943074 -25.46484375 1.453125 C-29.31040311 1.31324976 -33.15523361 1.16014585 -37 1 C-37 0.67 -37 0.34 -37 0 C-32.37375882 -0.16794307 -27.74734145 -0.32846718 -23.12060547 -0.48217773 C-21.54729317 -0.53548564 -19.97404769 -0.59080589 -18.40087891 -0.64819336 C-16.13719081 -0.73041829 -13.87335962 -0.8053589 -11.609375 -0.87890625 C-10.90818542 -0.90594131 -10.20699585 -0.93297638 -9.48455811 -0.96083069 C-6.15257463 -1.06222717 -3.18290477 -1.05977883 0 0 Z " fill="#473AE2" transform="translate(702,763)"/>
<path d="M0 0 C0.33 0 0.66 0 1 0 C2.21786614 6.98795036 3.29411026 13.94110263 4 21 C0.71484079 17.71484079 0.06447226 14.13213294 -0.1953125 9.5703125 C-0.17210937 8.43335938 -0.14890625 7.29640625 -0.125 6.125 C-0.10695313 4.97257812 -0.08890625 3.82015625 -0.0703125 2.6328125 C-0.04710937 1.76398438 -0.02390625 0.89515625 0 0 Z " fill="#6E4DF5" transform="translate(601,427)"/>
<path d="M0 0 C4.18238834 0.54769371 6.59868545 2.89888889 9.75 5.5625 C11.22726562 6.80193359 11.22726562 6.80193359 12.734375 8.06640625 C13.48203125 8.70449219 14.2296875 9.34257813 15 10 C14.01 10.33 13.02 10.66 12 11 C9.5 9.1875 9.5 9.1875 7 7 C6.01 6.34 5.02 5.68 4 5 C4 4.34 4 3.68 4 3 C2.68 2.67 1.36 2.34 0 2 C0 1.34 0 0.68 0 0 Z " fill="#5751EA" transform="translate(424,811)"/>
<path d="M0 0 C0.66 0.33 1.32 0.66 2 1 C-1.222107 4.8665284 -4.14922412 5.88059018 -9 7 C-9 6.34 -9 5.68 -9 5 C-12.3 5 -15.6 5 -19 5 C-19 4.67 -19 4.34 -19 4 C-17.44539063 3.94392578 -17.44539063 3.94392578 -15.859375 3.88671875 C-14.48954816 3.82104212 -13.11975809 3.75459536 -11.75 3.6875 C-10.72712891 3.65366211 -10.72712891 3.65366211 -9.68359375 3.61914062 C-5.54848704 3.39833396 -3.02085566 2.90407 0 0 Z " fill="#4B4BF9" transform="translate(486,609)"/>
<path d="M0 0 C3.65650299 1.21883433 3.848687 2.0548231 5.5625 5.375 C6.95394269 8.03651344 8.3291777 10.49376655 10 13 C7.19099964 12.64582169 6.18543998 12.21351117 4.296875 10.0390625 C3.78640625 9.24242187 3.2759375 8.44578125 2.75 7.625 C2.22921875 6.83351563 1.7084375 6.04203125 1.171875 5.2265625 C0 3 0 3 0 0 Z " fill="#6245F7" transform="translate(608,456)"/>
<path d="M0 0 C1.23593891 3.70781672 0.5678132 4.67510253 -0.9375 8.1875 C-1.31777344 9.08855469 -1.69804688 9.98960937 -2.08984375 10.91796875 C-2.54037109 11.94857422 -2.54037109 11.94857422 -3 13 C-3.99 13 -4.98 13 -6 13 C-2.86206897 2.86206897 -2.86206897 2.86206897 0 0 Z " fill="#6D58EC" transform="translate(798,687)"/>
<path d="M0 0 C0.66 0.33 1.32 0.66 2 1 C1.69127671 3.60466543 1.37818277 6.20867691 1.0625 8.8125 C0.97548828 9.55048828 0.88847656 10.28847656 0.79882812 11.04882812 C0.41783454 14.16733121 -0.00369374 17.01108122 -1 20 C-1.99 19.67 -2.98 19.34 -4 19 C-3.34 19 -2.68 19 -2 19 C-1.93941406 17.79601562 -1.87882813 16.59203125 -1.81640625 15.3515625 C-1.73200268 13.77602923 -1.64735459 12.20050904 -1.5625 10.625 C-1.50352539 9.43390625 -1.50352539 9.43390625 -1.44335938 8.21875 C-1.11328125 2.2265625 -1.11328125 2.2265625 0 0 Z " fill="#956BF7" transform="translate(753,642)"/>
<path d="M0 0 C5.31427203 2.70923672 8.42148591 5.22864787 12 10 C11.67 10.66 11.34 11.32 11 12 C10.29875 11.278125 9.5975 10.55625 8.875 9.8125 C6.91006927 7.83067874 4.86821544 6.05292847 2.6875 4.3125 C1.800625 3.549375 0.91375 2.78625 0 2 C0 1.34 0 0.68 0 0 Z " fill="#8762F9" transform="translate(512,430)"/>
<path d="M0 0 C0.66 0.33 1.32 0.66 2 1 C0.75312408 1.96239452 -0.49764969 2.91974009 -1.75 3.875 C-2.44609375 4.40867187 -3.1421875 4.94234375 -3.859375 5.4921875 C-5.8819213 6.91682778 -7.69165075 8.10856432 -10 9 C-10.99 8.67 -11.98 8.34 -13 8 C-10.880788 6.63594382 -8.75551882 5.28368225 -6.625 3.9375 C-6.02171875 3.54755859 -5.4184375 3.15761719 -4.796875 2.75585938 C-3.23507443 1.77539568 -1.62007786 0.88083925 0 0 Z " fill="#215FFA" transform="translate(303,476)"/>
<path d="M0 0 C3.99500618 1.3697164 6.80009492 3.25722422 10 6 C9.67 6.99 9.34 7.98 9 9 C7.68103535 8.07161713 6.37001311 7.13194268 5.0625 6.1875 C4.33160156 5.66542969 3.60070312 5.14335938 2.84765625 4.60546875 C1 3 1 3 0 0 Z " fill="#D6CDFB" transform="translate(827,602)"/>
<path d="M0 0 C-1.39332574 3.36720387 -2.9789286 4.9859524 -6 7 C-7.32 6.34 -8.64 5.68 -10 5 C-8.71186658 4.16121545 -7.41936744 3.32913217 -6.125 2.5 C-5.40570313 2.0359375 -4.68640625 1.571875 -3.9453125 1.09375 C-2 0 -2 0 0 0 Z " fill="#5E55EA" transform="translate(478,826)"/>
<path d="M0 0 C0.66 0.33 1.32 0.66 2 1 C2.31563182 6.26053037 1.66590937 9.44573816 -1 14 C-2.13302814 10.60091558 -1.79478216 9.4175633 -1 6 C-0.66055205 4.00102872 -0.32578384 2.00124361 0 0 Z " fill="#7F5AF8" transform="translate(523,443)"/>
<path d="M0 0 C5.40489519 1.52012677 8.98492628 5.27385218 13 9 C12.34 9.66 11.68 10.32 11 11 C10.34 10.01 9.68 9.02 9 8 C8.401875 7.731875 7.80375 7.46375 7.1875 7.1875 C3.9524102 5.4313084 2.26094844 2.88898967 0 0 Z " fill="#7858F7" transform="translate(865,635)"/>
<path d="M0 0 C3.49844386 0.63389235 5.84086876 2.05177694 8.75 4.0625 C9.94882812 4.88427734 9.94882812 4.88427734 11.171875 5.72265625 C12.07679688 6.35494141 12.07679688 6.35494141 13 7 C10 8 10 8 7.7734375 7.109375 C6.98195313 6.66078125 6.19046875 6.2121875 5.375 5.75 C4.57835937 5.31171875 3.78171875 4.8734375 2.9609375 4.421875 C1 3 1 3 0 0 Z " fill="#5766FC" transform="translate(416,590)"/>
<path d="M0 0 C4.32239956 3.34003602 7.17477391 6.32751069 10 11 C9.67 11.66 9.34 12.32 9 13 C8.34 11.68 7.68 10.36 7 9 C6.34 9 5.68 9 5 9 C4.67 8.01 4.34 7.02 4 6 C3.319375 5.319375 2.63875 4.63875 1.9375 3.9375 C1.298125 3.298125 0.65875 2.65875 0 2 C0 1.34 0 0.68 0 0 Z " fill="#A378F9" transform="translate(705,385)"/>
<path d="M0 0 C5.31027254 1.46032495 9.46330032 3.98320986 14 7 C13.01 7.66 12.02 8.32 11 9 C11 8.34 11 7.68 11 7 C10.113125 6.773125 9.22625 6.54625 8.3125 6.3125 C4.56619468 4.82811487 2.66270566 2.97596515 0 0 Z " fill="#4681FB" transform="translate(449,392)"/>
<path d="M0 0 C0.33 0.99 0.66 1.98 1 3 C-1.31 4.98 -3.62 6.96 -6 9 C-6 6 -6 6 -4.6875 4.39453125 C-4.130625 3.87246094 -3.57375 3.35039062 -3 2.8125 C-2.443125 2.28269531 -1.88625 1.75289063 -1.3125 1.20703125 C-0.6628125 0.60955078 -0.6628125 0.60955078 0 0 Z " fill="#8866F9" transform="translate(623,380)"/>
<path d="M0 0 C-1.23789629 3.71368887 -2.85224877 4.77354181 -6 7 C-6.66 7 -7.32 7 -8 7 C-6.47663111 3.31852519 -4.31953005 0 0 0 Z " fill="#5146E7" transform="translate(486,820)"/>
<path d="M0 0 C0.66 0.99 1.32 1.98 2 3 C0.68 5.31 -0.64 7.62 -2 10 C-2.66 10 -3.32 10 -4 10 C-2.8905928 6.51329166 -1.73662334 3.22515763 0 0 Z " fill="#5B8DFC" transform="translate(185,554)"/>
<path d="M0 0 C1.65 0 3.3 0 5 0 C5.33 0.99 5.66 1.98 6 3 C8.00016466 4.20882096 8.00016466 4.20882096 10 5 C10 5.99 10 6.98 10 8 C8.70684939 7.04367001 7.41553147 6.08486149 6.125 5.125 C5.40570312 4.59132813 4.68640625 4.05765625 3.9453125 3.5078125 C2 2 2 2 0 0 Z " fill="#705DF8" transform="translate(897,346)"/>
<path d="M0 0 C0.66 0 1.32 0 2 0 C2.99 2.97 3.98 5.94 5 9 C4.34 9.66 3.68 10.32 3 11 C2.49384702 9.73160474 1.99530901 8.46016898 1.5 7.1875 C1.2215625 6.47980469 0.943125 5.77210938 0.65625 5.04296875 C0 3 0 3 0 0 Z " fill="#6E74F5" transform="translate(795,289)"/>
<path d="M0 0 C-3.42346555 3.14958831 -6.44262737 3.56179109 -11 4 C-10.34 3.67 -9.68 3.34 -9 3 C-9 2.34 -9 1.68 -9 1 C-5.92677456 0.08941469 -3.19902639 -0.08886184 0 0 Z " fill="#5D4CE6" transform="translate(732,756)"/>
<path d="M0 0 C0.66 0.66 1.32 1.32 2 2 C-3.75 7 -3.75 7 -6 7 C-5.67 6.01 -5.34 5.02 -5 4 C-4.01 4 -3.02 4 -2 4 C-2 3.34 -2 2.68 -2 2 C-1.34 2 -0.68 2 0 2 C0 1.34 0 0.68 0 0 Z " fill="#6962F8" transform="translate(852,370)"/>
<path d="M0 0 C0.99 0.33 1.98 0.66 3 1 C1.1875 3 1.1875 3 -1 5 C-1.99 5 -2.98 5 -4 5 C-3 2 -3 2 0 0 Z " fill="#423BE0" transform="translate(533,780)"/>
<path d="M0 0 C0.66 0.33 1.32 0.66 2 1 C-0.31 3.31 -2.62 5.62 -5 8 C-5.33 7.01 -5.66 6.02 -6 5 C-4.02 3.35 -2.04 1.7 0 0 Z " fill="#6653F7" transform="translate(540,563)"/>
<path d="M0 0 C0.66 0.33 1.32 0.66 2 1 C-1.625 5.875 -1.625 5.875 -5 7 C-3.70700306 4.11562221 -2.34058637 2.12780579 0 0 Z " fill="#D2CCFB" transform="translate(809,407)"/>
<path d="M0 0 C0.66 0.99 1.32 1.98 2 3 C0.515 5.475 0.515 5.475 -1 8 C-1.66 7.67 -2.32 7.34 -3 7 C-1.125 2.25 -1.125 2.25 0 0 Z " fill="#4687FC" transform="translate(213,395)"/>
<path d="M0 0 C0 0.99 0 1.98 0 3 C-2.31 3 -4.62 3 -7 3 C-4.49955934 -0.00052879 -4.2621484 0 0 0 Z " fill="#7D71FA" transform="translate(896,344)"/>
</svg>
